<?xml version="1.0" encoding="UTF-8"?>
<svg width="24px" height="24px" viewBox="0 0 24 24" version="1.1" xmlns="http://www.w3.org/2000/svg">
    <path fill="currentColor" d="M12,2.162c3.204,0,3.584,0.012,4.849,0.07c1.308,0.06,2.655,0.358,3.608,1.311c0.962,0.962,1.251,2.296,1.311,3.608 c0.058,1.265,0.07,1.645,0.07,4.849c0,3.204-0.012,3.584-0.07,4.849c-0.059,1.301-0.364,2.661-1.311,3.608 c-0.962,0.962-2.295,1.251-3.608,1.311c-1.265,0.058-1.645,0.07-4.849,0.07c-3.204,0-3.584-0.012-4.849-0.07 c-1.291-0.059-2.669-0.371-3.608-1.311c-0.957-0.957-1.251-2.304-1.311-3.608c-0.058-1.265-0.07-1.645-0.07-4.849 c0-3.204,0.012-3.584,0.07-4.849c0.059-1.296,0.367-2.664,1.311-3.608c0.96-0.96,2.299-1.251,3.608-1.311 C8.416,2.174,8.796,2.162,12,2.162 M12,4.162c-3.159,0-3.555,0.012-4.806,0.069c-0.991,0.045-1.539,0.21-1.901,0.349 c-0.479,0.186-0.82,0.407-1.179,0.766c-0.359,0.359-0.58,0.7-0.766,1.179c-0.139,0.361-0.304,0.91-0.349,1.901 C3.012,8.638,3,9.034,3,12.193s0.012,3.555,0.069,4.806c0.045,0.991,0.21,1.539,0.349,1.901c0.186,0.479,0.407,0.82,0.766,1.179 c0.359,0.359,0.7,0.58,1.179,0.766c0.361,0.139,0.91,0.304,1.901,0.349c1.251,0.057,1.647,0.069,4.806,0.069 s3.555-0.012,4.806-0.069c0.991-0.045,1.539-0.21,1.901-0.349c0.479-0.186,0.82-0.407,1.179-0.766 c0.359-0.359,0.58-0.7,0.766-1.179c0.139-0.361,0.304-0.91,0.349-1.901c0.057-1.251,0.069-1.647,0.069-4.806 s-0.012-3.555-0.069-4.806c-0.045-0.991-0.21-1.539-0.349-1.901c-0.186-0.479-0.407-0.82-0.766-1.179 c-0.359-0.359-0.7-0.58-1.179-0.766c-0.361-0.139-0.91-0.304-1.901-0.349C15.555,4.174,15.159,4.162,12,4.162L12,4.162z M12,7.324c-2.682,0-4.856,2.174-4.856,4.856c0,2.682,2.174,4.856,4.856,4.856c2.682,0,4.856-2.174,4.856-4.856 C16.856,9.498,14.682,7.324,12,7.324z M12,15.036c-1.582,0-2.856-1.274-2.856-2.856S10.418,9.324,12,9.324s2.856,1.274,2.856,2.856 S13.582,15.036,12,15.036z M17.337,7.081c0,0.662-0.537,1.199-1.199,1.199c-0.662,0-1.199-0.537-1.199-1.199 s0.537-1.199,1.199-1.199C16.8,5.882,17.337,6.419,17.337,7.081z"/>
</svg> 