<?xml version="1.0" encoding="UTF-8"?>
<svg width="24px" height="24px" viewBox="0 0 24 24" version="1.1" xmlns="http://www.w3.org/2000/svg">
    <path fill="currentColor" d="M11 14.9861C11 15.5384 11.4477 15.9861 12 15.9861C12.5523 15.9861 13 15.5384 13 14.9861V7.82831L15.2428 10.0711C15.6333 10.4616 16.2665 10.4616 16.657 10.0711C17.0475 9.68063 17.0475 9.04746 16.657 8.65694L12.7071 4.70705C12.3166 4.31653 11.6834 4.31653 11.2929 4.70705L7.34315 8.65694C6.95263 9.04746 6.95263 9.68063 7.34315 10.0711C7.73368 10.4616 8.36684 10.4616 8.75737 10.0711L11 7.82831V14.9861Z"/>
    <path fill="currentColor" d="M4 14C4 13.4477 3.55228 13 3 13C2.44772 13 2 13.4477 2 14V16C2 18.2091 3.79086 20 6 20H18C20.2091 20 22 18.2091 22 16V14C22 13.4477 21.5523 13 21 13C20.4477 13 20 13.4477 20 14V16C20 17.1046 19.1046 18 18 18H6C4.89543 18 4 17.1046 4 16V14Z"/>
</svg> 